<svg id="Layer_1" data-name="Layer 1" xmlns="http://www.w3.org/2000/svg" viewBox="0 0 500 500"><defs><style>.cls-1{fill:#10153a;}.cls-2{fill:#24285b;}.cls-3{fill:#ececec;}.cls-4{fill:#e1e1e1;}.cls-5{fill:#ffbc00;}.cls-6{fill:#ff1778;}.cls-7{fill:#0099f5;}.cls-8{fill:#f9bb0d;}.cls-9{fill:#ffd44d;}.cls-10{fill:#0086f4;}</style></defs><title>Internet security</title><rect class="cls-1" x="117.56" y="116" width="234.49" height="161.44" rx="11.43"/><rect class="cls-2" x="117.51" y="116" width="218.47" height="152.34" rx="11.43"/><rect class="cls-3" x="103" y="92.42" width="263.56" height="58.72" rx="4.82"/><path class="cls-4" d="M366.56,147.89V97.12a3.78,3.78,0,0,0-4.6-3.68l-250.27,57.7H363.31A3.25,3.25,0,0,0,366.56,147.89Z"/><rect class="cls-5" x="270.21" y="105.77" width="10.94" height="32.02" rx="4.12"/><rect class="cls-5" x="300.31" y="105.77" width="10.94" height="32.02" rx="4.12"/><rect class="cls-5" x="330.41" y="105.77" width="10.94" height="32.02" rx="4.12"/><path class="cls-6" d="M127.24,121.78a5.78,5.78,0,1,1-5.78-5.78A5.77,5.77,0,0,1,127.24,121.78Z"/><rect class="cls-3" x="102.43" y="171.04" width="263.56" height="58.72" rx="4.82"/><path class="cls-4" d="M366,226.51V175.74a3.77,3.77,0,0,0-4.59-3.68L111.12,229.75H362.74A3.25,3.25,0,0,0,366,226.51Z"/><rect class="cls-5" x="269.64" y="184.39" width="10.94" height="32.02" rx="4.12"/><rect class="cls-5" x="299.74" y="184.39" width="10.94" height="32.02" rx="4.12"/><rect class="cls-5" x="329.84" y="184.39" width="10.94" height="32.02" rx="4.12"/><path class="cls-6" d="M126.67,200.4a5.78,5.78,0,1,1-5.78-5.78A5.77,5.77,0,0,1,126.67,200.4Z"/><rect class="cls-1" x="117.25" y="195.16" width="234.49" height="161.44" rx="11.43"/><rect class="cls-2" x="117.2" y="195.16" width="218.47" height="152.34" rx="11.43"/><rect class="cls-3" x="102.69" y="171.58" width="263.56" height="58.72" rx="4.82"/><path class="cls-4" d="M366.25,227.05V176.28a3.78,3.78,0,0,0-4.6-3.68L111.38,230.29H363A3.24,3.24,0,0,0,366.25,227.05Z"/><rect class="cls-5" x="269.9" y="184.92" width="10.94" height="32.02" rx="4.12"/><rect class="cls-5" x="300" y="184.92" width="10.94" height="32.02" rx="4.12"/><rect class="cls-5" x="330.1" y="184.92" width="10.94" height="32.02" rx="4.12"/><path class="cls-6" d="M126.93,200.93a5.78,5.78,0,1,1-5.78-5.77A5.78,5.78,0,0,1,126.93,200.93Z"/><rect class="cls-3" x="102.12" y="250.19" width="263.56" height="58.72" rx="4.82"/><path class="cls-4" d="M365.68,305.66V254.9a3.77,3.77,0,0,0-4.59-3.68L110.81,308.91H362.43A3.24,3.24,0,0,0,365.68,305.66Z"/><rect class="cls-5" x="269.33" y="263.54" width="10.94" height="32.02" rx="4.12"/><rect class="cls-5" x="299.43" y="263.54" width="10.94" height="32.02" rx="4.12"/><rect class="cls-5" x="329.53" y="263.54" width="10.94" height="32.02" rx="4.12"/><path class="cls-6" d="M126.36,279.55a5.78,5.78,0,1,1-5.78-5.77A5.78,5.78,0,0,1,126.36,279.55Z"/><path class="cls-7" d="M398.8,314.66c-33.54-11.2-57.46-33-57.46-33s-23.91,21.8-57.45,33c0,0-2,70.79,57.45,92.92C400.82,385.45,398.8,314.66,398.8,314.66Z"/><path class="cls-2" d="M343.9,315.47h-5.11a12.93,12.93,0,0,0-12.92,12.92v10.23a2.69,2.69,0,1,0,5.37,0V328.39a7.56,7.56,0,0,1,7.55-7.55h5.11a7.56,7.56,0,0,1,7.55,7.55v10.25h5.37V328.39A12.94,12.94,0,0,0,343.9,315.47Z"/><rect class="cls-8" x="319.39" y="337.56" width="43.91" height="36.21" rx="3"/><rect class="cls-9" x="319.39" y="337.56" width="38.73" height="32.24" rx="3"/><path class="cls-2" d="M346.41,352.54a5.23,5.23,0,1,0-8.15,4.34V360a3.09,3.09,0,0,0,6.17,0v-3.38A5.25,5.25,0,0,0,346.41,352.54Z"/><path class="cls-10" d="M398.8,314.66c-33.54-11.2-57.46-33-57.46-33s-2.92,2.66-8.15,6.61c9.74,7.33,27.48,19.1,49.31,26.39,0,0,1.82,64.14-49.31,89.41a87.63,87.63,0,0,0,8.15,3.51C400.82,385.45,398.8,314.66,398.8,314.66Z"/></svg>